#!OML:ASF X:\für Bonn\!DataBase\2005_08_12_Daniel\c3d\Daniel.ASF
:FULLY-SPECIFIED
:DEGREES
63
root -0.259986 17.22 1.08903 173.557 -6.64368 -177.77
lowerback 44.9388 1.42215 6.40772
upperback 13.1641 -0.970389 -0.729053
thorax -5.96803 -2.45754 -3.41351
lowerneck 4.79319 -2.88748 -3.77429
upperneck 9.35639 -4.7941 3.97404
head 2.3545 -2.62736 1.88194
rclavicle 3.27995e-015 -1.51076e-014
rhumerus 170.039 -194.622 -269.527
rradius 48.569
rwrist -29.2765
rhand -21.7919 19.6216
rfingers 7.12502
rthumb 4.6097 -10.3082
lclavicle 3.27995e-015 -1.51076e-014
lhumerus -22.9404 6.74519 91.7951
lradius 58.9717
lwrist -4.03866
lhand -12.168 -9.14297
lfingers 7.12502
lthumb 13.8951 20.3728
rfemur -15.2725 -4.77518 19.0241
rtibia 35.8618
rfoot -15.9139 -4.17924
rtoes -8.94204
lfemur -22.1175 -8.54543 -15.973
ltibia 45.9323
lfoot -17.3026 -9.90696
ltoes -8.12261
64
root -0.241975 17.2038 1.12798 173.925 -6.72619 -177.847
lowerback 45.8438 1.41003 6.64844
upperback 13.2516 -0.973391 -0.713211
thorax -6.08634 -2.50494 -3.49334
lowerneck 5.00223 -2.95071 -3.6579
upperneck 9.08028 -4.85673 3.99514
head 2.22619 -2.6501 1.87204
rclavicle 1.75924e-014 -4.06515e-014
rhumerus 171.375 -194.397 -269.09
rradius 47.365
rwrist -28.6472
rhand -21.8834 19.555
rfingers 7.12502
rthumb 4.52134 -10.3767
lclavicle 1.75924e-014 -4.06515e-014
lhumerus -22.8287 6.4341 91.7656
lradius 58.7931
lwrist -4.02444
lhand -12.1417 -9.11181
lfingers 7.12502
lthumb 13.9204 20.4022
rfemur -16.1776 -5.01418 19.0023
rtibia 36.4589
rfoot -15.9336 -4.00152
rtoes -8.88192
lfemur -22.9396 -8.33761 -15.9205
ltibia 46.3046
lfoot -17.2085 -10.1339
ltoes -8.17164
65
root -0.223472 17.185 1.16913 174.311 -6.80634 -177.909
lowerback 46.7612 1.39118 6.8861
upperback 13.3096 -0.969006 -0.67118
thorax -6.23068 -2.5481 -3.54462
lowerneck 5.31266 -2.99807 -3.59515
upperneck 8.73758 -4.90052 4.03217
head 2.06045 -2.6666 1.87939
rclavicle -1.49089e-015 1.49089e-014
rhumerus 172.663 -194.13 -268.642
rradius 46.2046
rwrist -27.9817
rhand -22.0065 19.5027
rfingers 7.12502
rthumb 4.40252 -10.4316
lclavicle -1.49089e-015 1.49089e-014
lhumerus -22.7111 6.18119 91.7666
lradius 58.5351
lwrist -3.99357
lhand -12.1686 -9.2583
lfingers 7.12502
lthumb 13.8945 20.2575
rfemur -17.1426 -5.28442 19.0026
rtibia 37.0837
rfoot -15.9412 -3.80098
rtoes -8.83038
lfemur -23.804 -8.09253 -15.8492
ltibia 46.6949
lfoot -17.1161 -10.3895
ltoes -8.20362
66
root -0.205832 17.1672 1.20625 174.714 -6.90569 -178.001
lowerback 48.58 1.26056 7.19035
upperback 12.4197 -0.941979 -0.790926
thorax -6.32913 -2.58039 -3.58707
lowerneck 5.47806 -3.06894 -3.55272
upperneck 8.47732 -4.97717 4.11228
head 1.95139 -2.69756 1.90191
rclavicle -1.963e-014 1.39149e-015
rhumerus 173.961 -193.744 -268.22
rradius 45.0197
rwrist -27.288
rhand -22.1574 19.5321
rfingers 7.12502
rthumb 4.25676 -10.4051
lclavicle -1.963e-014 1.39149e-015
lhumerus -22.5796 5.84209 91.7382
lradius 58.264
lwrist -3.94238
lhand -12.246 -9.37959
lfingers 7.12502
lthumb 13.82 20.1413
rfemur -18.1044 -5.50116 18.9743
rtibia 37.7236
rfoot -15.9878 -3.65604
rtoes -8.65077
lfemur -24.6675 -7.90413 -15.8207
ltibia 47.0866
lfoot -17.0188 -10.6006
ltoes -8.18667
67
root -0.188891 17.1479 1.24368 175.117 -6.9856 -178.1
lowerback 49.5108 1.21643 7.45077
upperback 12.4277 -0.939408 -0.797059
thorax -6.44076 -2.6198 -3.68507
lowerneck 5.53649 -3.14455 -3.49557
upperneck 8.29934 -5.05796 4.14681
head 1.88622 -2.73017 1.90476
rclavicle -1.06785e-014 3.2169e-014
rhumerus 175.208 -193.379 -267.793
rradius 43.9118
rwrist -26.632
rhand -22.3134 19.5536
rfingers 7.12502
rthumb 4.10612 -10.3866
lclavicle -1.06785e-014 3.2169e-014
lhumerus -22.4506 5.56884 91.7037
lradius 57.9514
lwrist -3.92426
lhand -12.339 -9.54651
lfingers 7.12502
lthumb 13.7303 19.9805
rfemur -19.0815 -5.7244 18.9391
rtibia 38.3819
rfoot -16.0238 -3.48341
rtoes -8.58206
lfemur -25.5304 -7.67184 -15.8132
ltibia 47.4929
lfoot -16.9564 -10.8174
ltoes -8.23983
68
root -0.173248 17.1274 1.28181 175.534 -7.08668 -178.211
lowerback 50.4126 1.148 7.72266
upperback 12.4574 -0.964407 -0.802116
thorax -6.51603 -2.67203 -3.77654
lowerneck 5.55977 -3.2146 -3.48733
upperneck 8.10749 -5.13183 4.22608
head 1.82553 -2.75905 1.93057
rclavicle -5.96354e-015 -4.62174e-015
rhumerus 176.51 -192.992 -267.357
rradius 42.7973
rwrist -26.0267
rhand -22.4849 19.656
rfingers 7.12502
rthumb 3.94057 -10.2873
lclavicle -5.96354e-015 -4.62174e-015
lhumerus -22.2324 5.28622 91.6682
lradius 57.6158
lwrist -3.92368
lhand -12.4647 -9.57613
lfingers 7.12502
lthumb 13.6091 19.959
rfemur -20.0817 -5.90933 18.8901
rtibia 39.0522
rfoot -16.0816 -3.3664
rtoes -8.37671
lfemur -26.4222 -7.48112 -15.8219
ltibia 47.9059
lfoot -16.8762 -11.0269
ltoes -8.29778
69
root -0.157178 17.106 1.31895 175.936 -7.19238 -178.306
lowerback 51.3187 1.07838 8.0197
upperback 12.4799 -0.968789 -0.791397
thorax -6.58673 -2.7143 -3.86944
lowerneck 5.62943 -3.29825 -3.48175
upperneck 7.90391 -5.22527 4.29359
head 1.7538 -2.79906 1.95398
rclavicle 8.94531e-016 7.8023e-015
rhumerus 177.782 -192.542 -266.902
rradius 41.6733
rwrist -25.3516
rhand -22.7238 19.7743
rfingers 7.12502
rthumb 3.7098 -10.1732
lclavicle 8.94531e-016 7.8023e-015
lhumerus -22.0187 5.04143 91.6644
lradius 57.2441
lwrist -4.00294
lhand -12.5836 -9.55701
lfingers 7.12502
lthumb 13.4946 19.9858
rfemur -21.0704 -6.09555 18.8614
rtibia 39.7387
rfoot -16.1562 -3.25284
rtoes -8.17886
lfemur -27.3039 -7.28456 -15.8245
ltibia 48.3314
lfoot -16.7971 -11.2295
ltoes -8.33847
70
root -0.142611 17.083 1.35629 176.364 -7.2814 -178.421
lowerback 52.1585 1.00214 8.31825
upperback 12.5312 -0.986683 -0.807273
thorax -6.61024 -2.75931 -3.98852
lowerneck 5.63815 -3.38599 -3.41005
upperneck 7.73854 -5.31968 4.33095
head 1.70199 -2.83754 1.95449
rclavicle 0 2.98177e-015
rhumerus 179.097 -192.04 -266.475
rradius 40.534
rwrist -24.6533
rhand -22.9558 19.9097
rfingers 7.12502
rthumb 3.48581 -10.0416
lclavicle 0 2.98177e-015
lhumerus -21.7828 4.73506 91.6128
lradius 56.9159
lwrist -4.01241
lhand -12.6783 -9.37769
lfingers 7.12502
lthumb 13.4033 20.1711
rfemur -22.1002 -6.26064 18.8127
rtibia 40.4461
rfoot -16.2435 -3.13183
rtoes -8.21152
lfemur -28.2162 -7.08998 -15.8541
ltibia 48.7735
lfoot -16.7361 -11.407
ltoes -8.33174
71
root -0.128572 17.0594 1.39287 176.795 -7.3796 -178.551
lowerback 52.9796 0.922977 8.60664
upperback 12.5765 -1.00277 -0.807335
thorax -6.63012 -2.80242 -4.08586
lowerneck 5.65937 -3.47091 -3.40678
upperneck 7.57598 -5.41683 4.40862
head 1.6528 -2.8794 1.9807
rclavicle -3.97569e-015 -6.26172e-015
rhumerus 180.433 -191.499 -266.031
rradius 39.387
rwrist -23.9966
rhand -23.218 20.0369
rfingers 7.12502
rthumb 3.2326 -9.91834
lclavicle -3.97569e-015 -6.26172e-015
lhumerus -21.574 4.52516 91.6103
lradius 56.6004
lwrist -4.07861
lhand -12.8036 -9.13162
lfingers 7.12502
lthumb 13.2825 20.4251
rfemur -23.1439 -6.42385 18.7521
rtibia 41.1739
rfoot -16.3272 -3.04442
rtoes -8.09252
lfemur -29.1357 -6.89151 -15.9088
ltibia 49.2253
lfoot -16.6625 -11.5757
ltoes -8.34201
72
root -0.116188 17.0333 1.42961 177.225 -7.47247 -178.683
lowerback 53.7643 0.818591 8.93825
upperback 12.6401 -1.02978 -0.836266
thorax -6.6177 -2.84604 -4.23073
lowerneck 5.62576 -3.57056 -3.33396
upperneck 7.46835 -5.53026 4.43624
head 1.62753 -2.92782 1.97666
rclavicle 1.88845e-014 -1.74931e-014
rhumerus 181.783 -190.951 -265.585
rradius 38.248
rwrist -23.3538
rhand -23.4842 20.1154
rfingers 7.12502
rthumb 2.97548 -9.84356
lclavicle 1.88845e-014 -1.74931e-014
lhumerus -21.3536 4.26544 91.5738
lradius 56.3004
lwrist -4.1512
lhand -12.9025 -8.84687
lfingers 7.12502
lthumb 13.1872 20.7161
rfemur -24.1978 -6.62433 18.6922
rtibia 41.9182
rfoot -16.4189 -2.92874
rtoes -8.1203
lfemur -30.0677 -6.71599 -15.9821
ltibia 49.6943
lfoot -16.6091 -11.7141
ltoes -8.35243
